<svg width="609pt" height="222pt" viewBox="0.00 0.00 609.08 221.60" xmlns="http://www.w3.org/2000/svg" xmlns:xlink="http://www.w3.org/1999/xlink">
<g id="graph0" class="graph" transform="scale(1 1) rotate(0) translate(4 217.6)">
<polygon fill="white" stroke="none" points="-4,4 -4,-217.6 605.08,-217.6 605.08,4 -4,4"/>
<!-- Rhttp://example.org/c -->
<g id="node1" class="node">
<title>Rhttp://example.org/c</title>
<g id="a_node1"><a xlink:href="http://example.org/c" xlink:title="http://example.org/c">
<ellipse fill="none" stroke="blue" cx="299.63" cy="-195.6" rx="89.07" ry="18"/>
<text text-anchor="middle" x="299.63" y="-191.4" font-family="Times,serif" font-size="14.00">http://example.org/c</text>
</a>
</g>
</g>
<!-- Rhttps://www.w3.org/ns/activitystreams#OrderedCollection -->
<g id="node2" class="node">
<title>Rhttps://www.w3.org/ns/activitystreams#OrderedCollection</title>
<g id="a_node2"><a xlink:href="https://www.w3.org/ns/activitystreams#OrderedCollection" xlink:title="as:OrderedCollection">
<ellipse fill="none" stroke="blue" cx="93.63" cy="-106.8" rx="93.63" ry="18"/>
<text text-anchor="middle" x="93.63" y="-102.6" font-family="Times,serif" font-size="14.00">as:OrderedCollection</text>
</a>
</g>
</g>
<!-- Rhttp://example.org/c&#45;&gt;Rhttps://www.w3.org/ns/activitystreams#OrderedCollection -->
<g id="edge1" class="edge">
<title>Rhttp://example.org/c-&gt;Rhttps://www.w3.org/ns/activitystreams#OrderedCollection</title>
<path fill="none" stroke="black" d="M262.32,-178.88C228.56,-164.65 178.62,-143.61 141.83,-128.11"/>
<polygon fill="black" stroke="black" points="143.32,-124.94 132.75,-124.28 140.6,-131.39 143.32,-124.94"/>
<text text-anchor="middle" x="237.24" y="-147" font-family="Times,serif" font-size="14.00">rdf:type</text>
</g>
<!-- Rhttp://example.org/o1 -->
<g id="node3" class="node">
<title>Rhttp://example.org/o1</title>
<g id="a_node3"><a xlink:href="http://example.org/o1" xlink:title="http://example.org/o1">
<ellipse fill="none" stroke="blue" cx="299.63" cy="-106.8" rx="94.45" ry="18"/>
<text text-anchor="middle" x="299.63" y="-102.6" font-family="Times,serif" font-size="14.00">http://example.org/o1</text>
</a>
</g>
</g>
<!-- Rhttp://example.org/c&#45;&gt;Rhttp://example.org/o1 -->
<g id="edge2" class="edge">
<title>Rhttp://example.org/c-&gt;Rhttp://example.org/o1</title>
<path fill="none" stroke="black" d="M299.63,-177.45C299.63,-165.76 299.63,-149.99 299.63,-136.42"/>
<polygon fill="black" stroke="black" points="303.13,-136.72 299.63,-126.72 296.13,-136.72 303.13,-136.72"/>
<text text-anchor="middle" x="322.57" y="-147" font-family="Times,serif" font-size="14.00">as:items</text>
</g>
<!-- Rhttp://example.org/o2 -->
<g id="node4" class="node">
<title>Rhttp://example.org/o2</title>
<g id="a_node4"><a xlink:href="http://example.org/o2" xlink:title="http://example.org/o2">
<ellipse fill="none" stroke="blue" cx="506.63" cy="-106.8" rx="94.45" ry="18"/>
<text text-anchor="middle" x="506.63" y="-102.6" font-family="Times,serif" font-size="14.00">http://example.org/o2</text>
</a>
</g>
</g>
<!-- Rhttp://example.org/c&#45;&gt;Rhttp://example.org/o2 -->
<g id="edge3" class="edge">
<title>Rhttp://example.org/c-&gt;Rhttp://example.org/o2</title>
<path fill="none" stroke="black" d="M337.12,-178.88C371.05,-164.65 421.23,-143.61 458.19,-128.11"/>
<polygon fill="black" stroke="black" points="459.46,-131.38 467.33,-124.28 456.75,-124.92 459.46,-131.38"/>
<text text-anchor="middle" x="444.61" y="-147" font-family="Times,serif" font-size="14.00">as:items</text>
</g>
<!-- Rhttps://www.w3.org/ns/activitystreams#Object -->
<g id="node5" class="node">
<title>Rhttps://www.w3.org/ns/activitystreams#Object</title>
<g id="a_node5"><a xlink:href="https://www.w3.org/ns/activitystreams#Object" xlink:title="as:Object">
<ellipse fill="none" stroke="blue" cx="299.63" cy="-18" rx="47.5" ry="18"/>
<text text-anchor="middle" x="299.63" y="-13.8" font-family="Times,serif" font-size="14.00">as:Object</text>
</a>
</g>
</g>
<!-- Rhttp://example.org/o1&#45;&gt;Rhttps://www.w3.org/ns/activitystreams#Object -->
<g id="edge4" class="edge">
<title>Rhttp://example.org/o1-&gt;Rhttps://www.w3.org/ns/activitystreams#Object</title>
<path fill="none" stroke="black" d="M299.63,-88.65C299.63,-76.96 299.63,-61.19 299.63,-47.62"/>
<polygon fill="black" stroke="black" points="303.13,-47.92 299.63,-37.92 296.13,-47.92 303.13,-47.92"/>
<text text-anchor="middle" x="321.79" y="-58.2" font-family="Times,serif" font-size="14.00">rdf:type</text>
</g>
<!-- Rhttps://www.w3.org/ns/activitystreams#Link -->
<g id="node6" class="node">
<title>Rhttps://www.w3.org/ns/activitystreams#Link</title>
<g id="a_node6"><a xlink:href="https://www.w3.org/ns/activitystreams#Link" xlink:title="as:Link">
<ellipse fill="none" stroke="blue" cx="506.63" cy="-18" rx="40" ry="18"/>
<text text-anchor="middle" x="506.63" y="-13.8" font-family="Times,serif" font-size="14.00">as:Link</text>
</a>
</g>
</g>
<!-- Rhttp://example.org/o2&#45;&gt;Rhttps://www.w3.org/ns/activitystreams#Link -->
<g id="edge5" class="edge">
<title>Rhttp://example.org/o2-&gt;Rhttps://www.w3.org/ns/activitystreams#Link</title>
<path fill="none" stroke="black" d="M506.63,-88.65C506.63,-76.96 506.63,-61.19 506.63,-47.62"/>
<polygon fill="black" stroke="black" points="510.13,-47.92 506.63,-37.92 503.13,-47.92 510.13,-47.92"/>
<text text-anchor="middle" x="528.79" y="-58.2" font-family="Times,serif" font-size="14.00">rdf:type</text>
</g>
</g>
</svg>